<svg xmlns="http://www.w3.org/2000/svg" version="1.1" xmlns:xlink="http://www.w3.org/1999/xlink" width="200" height="200"><svg xmlns="http://www.w3.org/2000/svg" version="1.1" xmlns:xlink="http://www.w3.org/1999/xlink" width="200" height="200"><svg xmlns="http://www.w3.org/2000/svg" version="1.1" xmlns:xlink="http://www.w3.org/1999/xlink" viewBox="0 0 200 200"><rect width="200" height="200" fill="url('#gradient')"></rect><defs><linearGradient id="gradient" gradientTransform="rotate(45 0.5 0.5)"><stop offset="0%" stop-color="#472027"></stop><stop offset="100%" stop-color="#192025"></stop></linearGradient></defs><g><g fill="#f3bd7d" transform="matrix(2.0378109452736317,0,0,2.0378109452736317,7.815363073467616,114.28677321903741)" stroke="#c06a3e" stroke-width="0.2"><path d="M8.87 0L6.36-5.02L4.50-5.02L4.50 0L1.07 0L1.07-14.22L6.67-14.22Q9.20-14.22 10.63-13.10Q12.05-11.97 12.05-9.92L12.05-9.92Q12.05-8.44 11.45-7.46Q10.85-6.48 9.57-5.88L9.57-5.88L12.54-0.15L12.54 0L8.87 0ZM4.50-11.57L4.50-7.67L6.67-7.67Q7.65-7.67 8.14-8.18Q8.63-8.69 8.63-9.61Q8.63-10.53 8.13-11.05Q7.64-11.57 6.67-11.57L6.67-11.57L4.50-11.57ZM13.56-4.82L13.55-5.38Q13.55-6.96 14.17-8.20Q14.79-9.43 15.94-10.10Q17.09-10.76 18.64-10.76L18.64-10.76Q21.02-10.76 22.38-9.29Q23.75-7.82 23.75-5.29L23.75-5.29L23.75-5.18Q23.75-2.71 22.38-1.25Q21.01 0.20 18.66 0.20L18.66 0.20Q16.41 0.20 15.04-1.16Q13.67-2.51 13.56-4.82L13.56-4.82ZM16.86-5.77L16.85-5.18Q16.85-3.71 17.30-3.03Q17.76-2.34 18.66-2.34L18.66-2.34Q20.42-2.34 20.46-5.05L20.46-5.05L20.46-5.38Q20.46-8.22 18.64-8.22L18.64-8.22Q16.99-8.22 16.86-5.77L16.86-5.77ZM24.79-4.82L24.79-5.38Q24.79-6.96 25.40-8.20Q26.02-9.43 27.17-10.10Q28.32-10.76 29.87-10.76L29.87-10.76Q32.25-10.76 33.61-9.29Q34.98-7.82 34.98-5.29L34.98-5.29L34.98-5.18Q34.98-2.71 33.61-1.25Q32.24 0.20 29.89 0.20L29.89 0.20Q27.64 0.20 26.27-1.16Q24.90-2.51 24.79-4.82L24.79-4.82ZM28.09-5.77L28.08-5.18Q28.08-3.71 28.54-3.03Q28.99-2.34 29.89-2.34L29.89-2.34Q31.65-2.34 31.69-5.05L31.69-5.05L31.69-5.38Q31.69-8.22 29.87-8.22L29.87-8.22Q28.22-8.22 28.09-5.77L28.09-5.77ZM36.97-13.19L40.26-13.19L40.26-10.57L42.00-10.57L42.00-8.28L40.26-8.28L40.26-3.45Q40.26-2.85 40.48-2.62Q40.69-2.38 41.33-2.38L41.33-2.38Q41.82-2.38 42.15-2.44L42.15-2.44L42.15-0.09Q41.26 0.20 40.29 0.20L40.29 0.20Q38.59 0.20 37.78-0.61Q36.97-1.41 36.97-3.04L36.97-3.04L36.97-8.28L35.63-8.28L35.63-10.57L36.97-10.57L36.97-13.19ZM54.20 0L48.43 0L48.43-14.22L53.54-14.22Q56.28-14.22 57.71-13.21Q59.14-12.21 59.14-10.29L59.14-10.29Q59.14-9.19 58.63-8.41Q58.13-7.63 57.14-7.26L57.14-7.26Q58.25-6.96 58.85-6.16Q59.44-5.36 59.44-4.21L59.44-4.21Q59.44-2.12 58.12-1.07Q56.80-0.02 54.20 0L54.20 0ZM54.26-6.04L51.86-6.04L51.86-2.64L54.10-2.64Q55.03-2.64 55.53-3.06Q56.03-3.49 56.03-4.26L56.03-4.26Q56.03-6.04 54.26-6.04L54.26-6.04ZM51.86-11.57L51.86-8.29L53.64-8.29Q54.77-8.30 55.24-8.70Q55.72-9.10 55.72-9.88L55.72-9.88Q55.72-10.78 55.21-11.18Q54.69-11.57 53.54-11.57L53.54-11.57L51.86-11.57ZM66.29 0.20L66.29 0.20Q63.86 0.20 62.35-1.25Q60.85-2.71 60.85-5.03L60.85-5.03L60.85-5.30Q60.85-6.92 61.45-8.16Q62.05-9.40 63.20-10.08Q64.36-10.76 65.94-10.76L65.94-10.76Q68.16-10.76 69.45-9.38Q70.74-8.00 70.74-5.53L70.74-5.53L70.74-4.25L64.20-4.25Q64.38-3.36 64.97-2.85Q65.57-2.34 66.51-2.34L66.51-2.34Q68.08-2.34 68.96-3.44L68.96-3.44L70.46-1.66Q69.84-0.81 68.72-0.31Q67.59 0.20 66.29 0.20ZM65.92-8.22L65.92-8.22Q64.47-8.22 64.20-6.31L64.20-6.31L67.52-6.31L67.52-6.56Q67.54-7.35 67.12-7.79Q66.70-8.22 65.92-8.22ZM77.18 0.20L77.18 0.20Q74.75 0.20 73.24-1.25Q71.74-2.71 71.74-5.03L71.74-5.03L71.74-5.30Q71.74-6.92 72.34-8.16Q72.94-9.40 74.09-10.08Q75.24-10.76 76.83-10.76L76.83-10.76Q79.05-10.76 80.34-9.38Q81.63-8.00 81.63-5.53L81.63-5.53L81.63-4.25L75.09-4.25Q75.26-3.36 75.86-2.85Q76.46-2.34 77.40-2.34L77.40-2.34Q78.96-2.34 79.84-3.44L79.84-3.44L81.35-1.66Q80.73-0.81 79.60-0.31Q78.48 0.20 77.18 0.20ZM76.81-8.22L76.81-8.22Q75.36-8.22 75.09-6.31L75.09-6.31L78.41-6.31L78.41-6.56Q78.43-7.35 78.01-7.79Q77.59-8.22 76.81-8.22ZM89.40-10.64L89.35-7.59L88.26-7.67Q86.71-7.67 86.27-6.69L86.27-6.69L86.27 0L82.98 0L82.98-10.57L86.06-10.57L86.17-9.21Q87.00-10.76 88.49-10.76L88.49-10.76Q89.01-10.76 89.40-10.64L89.40-10.64Z"></path></g></g></svg></svg><style>@media (prefers-color-scheme: light) { :root { filter: none; } }
@media (prefers-color-scheme: dark) { :root { filter: none; } }
</style></svg>